Coordinates
version=1
nRows=5
nColumns=40
inDegrees=yes

Units are S.I. units (second, meters, Newtons, ...)
Angles are in degrees.

endheader
time	pelvis_tilt	pelvis_list	pelvis_rotation	pelvis_tx	pelvis_ty	pelvis_tz	hip_flexion_r	hip_adduction_r	hip_rotation_r	knee_angle_r	knee_angle_r_beta	ankle_angle_r	subtalar_angle_r	mtp_angle_r	hip_flexion_l	hip_adduction_l	hip_rotation_l	knee_angle_l	knee_angle_l_beta	ankle_angle_l	subtalar_angle_l	mtp_angle_l	lumbar_extension	lumbar_bending	lumbar_rotation	arm_flex_r	arm_add_r	arm_rot_r	elbow_flex_r	pro_sup_r	wrist_flex_r	wrist_dev_r	arm_flex_l	arm_add_l	arm_rot_l	elbow_flex_l	pro_sup_l	wrist_flex_l	wrist_dev_l
     12.99500000	     -4.92214417	     -3.00483491	      9.17582683	      1.02801229	      0.91730168	      0.56563171	      5.32848119	      2.83624740	    -16.14679441	     20.21564166	     20.21564166	     19.99804010	     -8.37023697	     -0.80506538	     28.05345854	     -6.58218399	      3.06353678	     20.83228313	     20.83228313	      3.73205476	     -9.00132913	      1.85377481	     -9.25320821	      2.73092035	      2.87119340	     47.68315222	    -19.28654852	    -10.30875152	     88.72182146	     44.61957016	      0.00000000	      0.00000000	    -12.13357123	     -7.33083237	      5.22215607	     33.60026283	     44.58555675	      0.00000000	      0.00000000
     13.01421429	     -5.02011181	     -3.03509570	      9.43015851	      1.02815082	      0.91686319	      0.56213521	      4.96609229	      2.67483596	    -16.29346540	     20.19466421	     20.19466421	     20.12354561	     -8.40111349	     -0.83281946	     27.94872092	     -6.36313454	      3.10976520	     21.13347698	     21.13347698	      3.38694293	     -8.90941945	      1.88001244	     -9.13509234	      2.72869701	      2.94770344	     47.82523004	    -19.14717654	    -10.22787639	     88.72117263	     44.61867235	      0.00000000	      0.00000000	    -11.56306429	     -7.35028908	      5.23388339	     33.82401630	     44.59422844	      0.00000000	      0.00000000
     13.03342857	     -5.03764820	     -3.03175333	      9.63046687	      1.02839968	      0.91659724	      0.55844318	      4.50832010	      2.45964038	    -16.48972789	     20.18517415	     20.18517415	     20.15698380	     -8.30828757	     -0.85341771	     27.87890138	     -6.09459124	      3.27084581	     21.71549780	     21.71549780	      3.28773982	     -9.00563057	      1.75572011	     -9.14676227	      2.64811661	      3.03173393	     47.92249716	    -18.99729699	    -10.11854448	     88.61159882	     44.62091362	      0.00000000	      0.00000000	    -10.72328757	     -7.40851854	      5.24958647	     34.15749300	     44.60729842	      0.00000000	      0.00000000
     13.05264286	     -4.95925229	     -3.12037884	      9.77196129	      1.02880634	      0.91637192	      0.55451072	      3.94539825	      2.29720256	    -16.83861812	     20.19926533	     20.19926533	     20.26367631	     -7.78561024	     -1.02479127	     27.94237432	     -5.88293949	      3.64118725	     22.73708356	     22.73708356	      3.37227828	     -9.55789729	      1.57345461	     -9.24384330	      2.74229130	      3.27877587	     47.97171373	    -19.13236687	    -10.06224690	     88.08790267	     44.64198536	      0.00000000	      0.00000000	    -10.04907016	     -7.49158783	      5.31868577	     34.51308016	     44.61643516	      0.00000000	      0.00000000
     13.07185714	     -4.96845248	     -3.13299096	      9.88279208	      1.02926073	      0.91623345	      0.55032855	      3.46146105	      2.02412229	    -17.13396136	     20.20369287	     20.20369287	     20.28796550	     -7.33832695	     -1.17356998	     27.99052919	     -5.53824237	      4.05825408	     23.61527111	     23.61527111	      3.54923864	    -10.22401227	      1.57157127	     -9.23663672	      2.76127143	      3.49098197	     47.80750482	    -19.15893483	     -9.97049354	     87.37896879	     44.66711235	      0.00000000	      0.00000000	     -9.29762091	     -7.56768068	      5.37973232	     34.88432462	     44.62845384	      0.00000000	      0.00000000
